<svg width="48" height="48" viewBox="0 0 48 48" fill="none" xmlns="http://www.w3.org/2000/svg">
<path d="M26.056 4.002C27.5155 3.9964 28.9749 4.01107 30.434 4.046L30.822 4.06C31.27 4.076 31.712 4.096 32.246 4.12C34.374 4.22 35.826 4.556 37.1 5.05C38.42 5.558 39.532 6.246 40.644 7.358C41.6607 8.35722 42.4476 9.5659 42.95 10.9C43.444 12.174 43.78 13.628 43.88 15.756C43.904 16.288 43.924 16.732 43.94 17.18L43.952 17.568C43.9875 19.0264 44.0029 20.4852 43.998 21.944L44 23.436V26.056C44.0049 27.5155 43.9896 28.975 43.954 30.434L43.942 30.822C43.926 31.27 43.906 31.712 43.882 32.246C43.782 34.374 43.442 35.826 42.95 37.1C42.4493 38.4355 41.6622 39.6452 40.644 40.644C39.6439 41.6606 38.4346 42.4475 37.1 42.95C35.826 43.444 34.374 43.78 32.246 43.88C31.712 43.904 31.27 43.924 30.822 43.94L30.434 43.952C28.9749 43.9876 27.5155 44.0029 26.056 43.998L24.564 44H21.946C20.4865 44.0049 19.027 43.9896 17.568 43.954L17.18 43.942C16.7052 43.9248 16.2305 43.9048 15.756 43.882C13.628 43.782 12.176 43.442 10.9 42.95C9.56536 42.4487 8.35647 41.6617 7.35799 40.644C6.34008 39.6446 5.55244 38.4351 5.04999 37.1C4.55599 35.826 4.21999 34.374 4.11999 32.246C4.09772 31.7714 4.07772 31.2968 4.05999 30.822L4.04999 30.434C4.01312 28.975 3.99645 27.5155 3.99999 26.056V21.944C3.99441 20.4852 4.00908 19.0264 4.04399 17.568L4.05799 17.18C4.07399 16.732 4.09399 16.288 4.11799 15.756C4.21799 13.626 4.55399 12.176 5.04799 10.9C5.55074 9.56524 6.33992 8.35689 7.35999 7.36C8.35778 6.34151 9.56592 5.55315 10.9 5.05C12.176 4.556 13.626 4.22 15.756 4.12L17.18 4.06L17.568 4.05C19.0264 4.01315 20.4852 3.99648 21.944 4L26.056 4.002ZM24 14.002C22.675 13.9833 21.3595 14.2281 20.1299 14.7221C18.9004 15.2162 17.7813 15.9498 16.8377 16.8801C15.8941 17.8105 15.1448 18.9191 14.6334 20.1415C14.1219 21.364 13.8586 22.6759 13.8586 24.001C13.8586 25.3261 14.1219 26.638 14.6334 27.8605C15.1448 29.0829 15.8941 30.1915 16.8377 31.1219C17.7813 32.0522 18.9004 32.7858 20.1299 33.2799C21.3595 33.774 22.675 34.0187 24 34C26.6522 34 29.1957 32.9464 31.0711 31.0711C32.9464 29.1957 34 26.6522 34 24C34 21.3478 32.9464 18.8043 31.0711 16.9289C29.1957 15.0536 26.6522 14.002 24 14.002ZM24 18.002C24.797 17.9873 25.589 18.1316 26.3296 18.4264C27.0702 18.7212 27.7447 19.1607 28.3136 19.7191C28.8824 20.2775 29.3343 20.9437 29.6429 21.6787C29.9514 22.4137 30.1104 23.2028 30.1105 24C30.1107 24.7971 29.9519 25.5863 29.6437 26.3214C29.3354 27.0566 28.8837 27.7229 28.315 28.2815C27.7463 28.8401 27.072 29.2797 26.3314 29.5748C25.5909 29.8699 24.799 30.0144 24.002 30C22.4107 30 20.8846 29.3679 19.7594 28.2426C18.6341 27.1174 18.002 25.5913 18.002 24C18.002 22.4087 18.6341 20.8826 19.7594 19.7574C20.8846 18.6321 22.4107 18 24.002 18L24 18.002ZM34.5 11.002C33.8548 11.0278 33.2446 11.3023 32.7972 11.7679C32.3498 12.2336 32.1 12.8543 32.1 13.5C32.1 14.1457 32.3498 14.7664 32.7972 15.2321C33.2446 15.6977 33.8548 15.9722 34.5 15.998C35.163 15.998 35.7989 15.7346 36.2678 15.2658C36.7366 14.7969 37 14.161 37 13.498C37 12.835 36.7366 12.1991 36.2678 11.7302C35.7989 11.2614 35.163 10.998 34.5 10.998V11.002Z" fill="white"/>
</svg>
