<svg width="48" height="48" viewBox="0 0 48 48" fill="none" xmlns="http://www.w3.org/2000/svg">
<path d="M44.92 12C43.38 12.7 41.72 13.16 40 13.38C41.76 12.32 43.12 10.64 43.76 8.62C42.1 9.62 40.26 10.32 38.32 10.72C36.74 9 34.52 8 32 8C27.3 8 23.46 11.84 23.46 16.58C23.46 17.26 23.54 17.92 23.68 18.54C16.56 18.18 10.22 14.76 6.00002 9.58C5.26002 10.84 4.84002 12.32 4.84002 13.88C4.84002 16.86 6.34002 19.5 8.66002 21C7.24002 21 5.92002 20.6 4.76002 20V20.06C4.76002 24.22 7.72002 27.7 11.64 28.48C10.3815 28.8244 9.06021 28.8723 7.78002 28.62C8.32323 30.325 9.38709 31.8168 10.8221 32.8859C12.257 33.9549 13.9909 34.5474 15.78 34.58C12.7473 36.9809 8.98801 38.2786 5.12002 38.26C4.44002 38.26 3.76002 38.22 3.08002 38.14C6.88002 40.58 11.4 42 16.24 42C32 42 40.66 28.92 40.66 17.58C40.66 17.2 40.66 16.84 40.64 16.46C42.32 15.26 43.76 13.74 44.92 12Z" fill="white"/>
</svg>
